<mxfile host="Electron" agent="Mozilla/5.0 (Macintosh; Intel Mac OS X 10_15_7) AppleWebKit/537.36 (KHTML, like Gecko) draw.io/24.7.5 Chrome/126.0.6478.183 Electron/31.3.0 Safari/537.36" version="24.7.5">
  <diagram id="BHxD-PhOx6YVG1rUr-1_" name="Page-1">
    <mxGraphModel dx="1704" dy="1036" grid="1" gridSize="10" guides="1" tooltips="1" connect="1" arrows="1" fold="1" page="1" pageScale="1" pageWidth="1169" pageHeight="827" math="0" shadow="0">
      <root>
        <mxCell id="0" />
        <mxCell id="1" parent="0" />
        <mxCell id="nJ-AOx4mjmJLJll7i9gP-16" value="{prefix}-vpc" style="sketch=0;outlineConnect=0;gradientColor=none;html=1;whiteSpace=wrap;fontSize=12;fontStyle=0;shape=mxgraph.aws4.group;grIcon=mxgraph.aws4.group_vpc;strokeColor=#879196;fillColor=none;verticalAlign=top;align=left;spacingLeft=30;fontColor=#879196;dashed=0;" vertex="1" parent="1">
          <mxGeometry x="150" y="122" width="960" height="458" as="geometry" />
        </mxCell>
        <mxCell id="nJ-AOx4mjmJLJll7i9gP-19" value="{region}c" style="sketch=0;outlineConnect=0;gradientColor=none;html=1;whiteSpace=wrap;fontSize=12;fontStyle=0;shape=mxgraph.aws4.group;grIcon=mxgraph.aws4.group_availability_zone;strokeColor=#545B64;fillColor=none;verticalAlign=top;align=left;spacingLeft=30;fontColor=#545B64;dashed=1;" vertex="1" parent="1">
          <mxGeometry x="840" y="160" width="230" height="380" as="geometry" />
        </mxCell>
        <mxCell id="nJ-AOx4mjmJLJll7i9gP-2" value="{prefix}-igw" style="outlineConnect=0;dashed=0;verticalLabelPosition=bottom;verticalAlign=top;align=center;html=1;shape=mxgraph.aws3.internet_gateway;fillColor=#F58536;gradientColor=none;" vertex="1" parent="1">
          <mxGeometry x="170" y="180" width="69" height="72" as="geometry" />
        </mxCell>
        <mxCell id="nJ-AOx4mjmJLJll7i9gP-5" style="edgeStyle=orthogonalEdgeStyle;rounded=0;orthogonalLoop=1;jettySize=auto;html=1;" edge="1" parent="1" source="nJ-AOx4mjmJLJll7i9gP-3" target="nJ-AOx4mjmJLJll7i9gP-2">
          <mxGeometry relative="1" as="geometry" />
        </mxCell>
        <mxCell id="nJ-AOx4mjmJLJll7i9gP-14" value="aws_route.internet" style="edgeLabel;html=1;align=center;verticalAlign=middle;resizable=0;points=[];" vertex="1" connectable="0" parent="nJ-AOx4mjmJLJll7i9gP-5">
          <mxGeometry x="0.5062" y="2" relative="1" as="geometry">
            <mxPoint x="19" y="15" as="offset" />
          </mxGeometry>
        </mxCell>
        <mxCell id="nJ-AOx4mjmJLJll7i9gP-3" value="{previx}-rt-public" style="outlineConnect=0;dashed=0;verticalLabelPosition=bottom;verticalAlign=top;align=center;html=1;shape=mxgraph.aws3.route_table;fillColor=#F58536;gradientColor=none;" vertex="1" parent="1">
          <mxGeometry x="440" y="233" width="75" height="69" as="geometry" />
        </mxCell>
        <mxCell id="nJ-AOx4mjmJLJll7i9gP-4" value="{prefix}-rt-private" style="outlineConnect=0;dashed=0;verticalLabelPosition=bottom;verticalAlign=top;align=center;html=1;shape=mxgraph.aws3.route_table;fillColor=#F58536;gradientColor=none;" vertex="1" parent="1">
          <mxGeometry x="440" y="390" width="75" height="69" as="geometry" />
        </mxCell>
        <mxCell id="nJ-AOx4mjmJLJll7i9gP-8" style="edgeStyle=orthogonalEdgeStyle;rounded=0;orthogonalLoop=1;jettySize=auto;html=1;" edge="1" parent="1" source="nJ-AOx4mjmJLJll7i9gP-6" target="nJ-AOx4mjmJLJll7i9gP-3">
          <mxGeometry relative="1" as="geometry" />
        </mxCell>
        <mxCell id="nJ-AOx4mjmJLJll7i9gP-6" value="{prefix}-subnet-public-a&lt;div&gt;10.0.21.0/24&lt;br&gt;&lt;/div&gt;" style="points=[[0,0],[0.25,0],[0.5,0],[0.75,0],[1,0],[1,0.25],[1,0.5],[1,0.75],[1,1],[0.75,1],[0.5,1],[0.25,1],[0,1],[0,0.75],[0,0.5],[0,0.25]];outlineConnect=0;gradientColor=none;html=1;whiteSpace=wrap;fontSize=12;fontStyle=0;container=1;pointerEvents=0;collapsible=0;recursiveResize=0;shape=mxgraph.aws4.group;grIcon=mxgraph.aws4.group_security_group;grStroke=0;strokeColor=#7AA116;fillColor=#F2F6E8;verticalAlign=top;align=left;spacingLeft=30;fontColor=#248814;dashed=0;" vertex="1" parent="1">
          <mxGeometry x="610" y="233" width="190" height="40" as="geometry" />
        </mxCell>
        <mxCell id="nJ-AOx4mjmJLJll7i9gP-9" style="edgeStyle=orthogonalEdgeStyle;rounded=0;orthogonalLoop=1;jettySize=auto;html=1;exitX=0;exitY=0.25;exitDx=0;exitDy=0;" edge="1" parent="1" source="nJ-AOx4mjmJLJll7i9gP-7" target="nJ-AOx4mjmJLJll7i9gP-3">
          <mxGeometry relative="1" as="geometry">
            <Array as="points">
              <mxPoint x="560" y="300" />
              <mxPoint x="560" y="268" />
            </Array>
          </mxGeometry>
        </mxCell>
        <mxCell id="nJ-AOx4mjmJLJll7i9gP-7" value="{prefix}-subnet-public-c&lt;div&gt;10.0.12.0/24&lt;br&gt;&lt;/div&gt;" style="points=[[0,0],[0.25,0],[0.5,0],[0.75,0],[1,0],[1,0.25],[1,0.5],[1,0.75],[1,1],[0.75,1],[0.5,1],[0.25,1],[0,1],[0,0.75],[0,0.5],[0,0.25]];outlineConnect=0;gradientColor=none;html=1;whiteSpace=wrap;fontSize=12;fontStyle=0;container=1;pointerEvents=0;collapsible=0;recursiveResize=0;shape=mxgraph.aws4.group;grIcon=mxgraph.aws4.group_security_group;grStroke=0;strokeColor=#7AA116;fillColor=#F2F6E8;verticalAlign=top;align=left;spacingLeft=30;fontColor=#248814;dashed=0;" vertex="1" parent="1">
          <mxGeometry x="860" y="290" width="190" height="40" as="geometry" />
        </mxCell>
        <mxCell id="nJ-AOx4mjmJLJll7i9gP-12" style="edgeStyle=orthogonalEdgeStyle;rounded=0;orthogonalLoop=1;jettySize=auto;html=1;" edge="1" parent="1" source="nJ-AOx4mjmJLJll7i9gP-10" target="nJ-AOx4mjmJLJll7i9gP-4">
          <mxGeometry relative="1" as="geometry" />
        </mxCell>
        <mxCell id="nJ-AOx4mjmJLJll7i9gP-10" value="{prefix}-subnet-private-a&lt;div&gt;10.0.11.0/24&lt;br&gt;&lt;/div&gt;" style="points=[[0,0],[0.25,0],[0.5,0],[0.75,0],[1,0],[1,0.25],[1,0.5],[1,0.75],[1,1],[0.75,1],[0.5,1],[0.25,1],[0,1],[0,0.75],[0,0.5],[0,0.25]];outlineConnect=0;gradientColor=none;html=1;whiteSpace=wrap;fontSize=12;fontStyle=0;container=1;pointerEvents=0;collapsible=0;recursiveResize=0;shape=mxgraph.aws4.group;grIcon=mxgraph.aws4.group_security_group;grStroke=0;strokeColor=#00A4A6;fillColor=#E6F6F7;verticalAlign=top;align=left;spacingLeft=30;fontColor=#147EBA;dashed=0;" vertex="1" parent="1">
          <mxGeometry x="610" y="390" width="190" height="40" as="geometry" />
        </mxCell>
        <mxCell id="nJ-AOx4mjmJLJll7i9gP-13" style="edgeStyle=orthogonalEdgeStyle;rounded=0;orthogonalLoop=1;jettySize=auto;html=1;" edge="1" parent="1" source="nJ-AOx4mjmJLJll7i9gP-11" target="nJ-AOx4mjmJLJll7i9gP-4">
          <mxGeometry relative="1" as="geometry">
            <Array as="points">
              <mxPoint x="560" y="460" />
              <mxPoint x="560" y="425" />
            </Array>
          </mxGeometry>
        </mxCell>
        <mxCell id="nJ-AOx4mjmJLJll7i9gP-11" value="{prefix}-subnet-private-c&lt;div&gt;10.0.12.0/24&lt;br&gt;&lt;/div&gt;" style="points=[[0,0],[0.25,0],[0.5,0],[0.75,0],[1,0],[1,0.25],[1,0.5],[1,0.75],[1,1],[0.75,1],[0.5,1],[0.25,1],[0,1],[0,0.75],[0,0.5],[0,0.25]];outlineConnect=0;gradientColor=none;html=1;whiteSpace=wrap;fontSize=12;fontStyle=0;container=1;pointerEvents=0;collapsible=0;recursiveResize=0;shape=mxgraph.aws4.group;grIcon=mxgraph.aws4.group_security_group;grStroke=0;strokeColor=#00A4A6;fillColor=#E6F6F7;verticalAlign=top;align=left;spacingLeft=30;fontColor=#147EBA;dashed=0;" vertex="1" parent="1">
          <mxGeometry x="860" y="440" width="190" height="40" as="geometry" />
        </mxCell>
        <mxCell id="nJ-AOx4mjmJLJll7i9gP-18" value="{region}a" style="sketch=0;outlineConnect=0;gradientColor=none;html=1;whiteSpace=wrap;fontSize=12;fontStyle=0;shape=mxgraph.aws4.group;grIcon=mxgraph.aws4.group_availability_zone;strokeColor=#545B64;fillColor=none;verticalAlign=top;align=left;spacingLeft=30;fontColor=#545B64;dashed=1;" vertex="1" parent="1">
          <mxGeometry x="590" y="160" width="230" height="380" as="geometry" />
        </mxCell>
      </root>
    </mxGraphModel>
  </diagram>
</mxfile>
